<?xml version="1.0" standalone="no"?>
<!DOCTYPE svg PUBLIC "-//W3C//DTD SVG 20010904//EN"
 "http://www.w3.org/TR/2001/REC-SVG-20010904/DTD/svg10.dtd">
<svg version="1.0" xmlns="http://www.w3.org/2000/svg"
 width="223.000000pt" height="217.000000pt" viewBox="0 0 223.000000 217.000000"
 preserveAspectRatio="xMidYMid meet">

<g transform="translate(0.000000,217.000000) scale(0.100000,-0.100000)"
fill="#000000" stroke="none">
<path d="M1300 1800 c0 -6 -11 -22 -24 -35 -21 -21 -27 -23 -55 -12 -25 9 -33
8 -50 -7 -15 -14 -18 -23 -11 -37 18 -33 11 -59 -20 -77 -41 -23 -41 -61 0
-84 31 -18 38 -44 20 -78 -14 -26 14 -45 69 -45 40 0 47 -3 59 -27 10 -21 20
-28 43 -28 18 0 29 5 29 14 0 31 31 48 75 42 53 -8 74 11 57 49 -15 33 2 71
34 79 34 9 34 61 1 70 -32 8 -47 42 -33 78 15 40 -10 65 -51 51 -36 -13 -69 1
-77 33 -5 19 -13 24 -36 24 -17 0 -30 -5 -30 -10z m101 -139 c52 -53 34 -137
-36 -167 -91 -38 -183 67 -128 146 27 40 45 49 91 50 35 0 49 -6 73 -29z"/>
<path d="M1558 1548 c-25 -9 -28 -14 -28 -57 0 -39 -5 -52 -29 -75 -24 -23
-36 -27 -73 -24 -43 3 -43 3 -58 -40 l-15 -44 33 -29 c45 -40 44 -83 -2 -128
l-34 -33 16 -39 c14 -38 17 -39 62 -39 63 0 92 -30 94 -97 1 -47 2 -48 43 -62
41 -15 41 -15 68 17 21 26 34 32 65 32 31 0 44 -7 68 -35 l31 -34 40 17 c39
16 41 19 41 63 0 61 27 87 94 91 46 3 49 5 63 41 16 38 15 39 -16 71 -42 43
-42 88 0 132 30 30 30 33 18 73 -12 40 -13 41 -58 41 -63 0 -101 36 -101 97 0
37 -4 44 -30 58 -41 21 -53 19 -78 -15 -18 -24 -30 -30 -60 -30 -29 0 -45 7
-67 30 -30 32 -43 34 -87 18z m186 -169 c83 -23 126 -79 126 -164 0 -92 -62
-162 -153 -172 -104 -12 -203 95 -183 199 15 82 67 128 166 147 3 0 23 -4 44
-10z"/>
<path d="M774 1478 c-35 -116 -42 -125 -105 -148 l-61 -23 -69 34 -70 33 -56
-56 -57 -57 33 -71 33 -71 -22 -52 c-28 -66 -26 -65 -101 -92 l-64 -23 -6 -73
c-3 -41 -4 -79 -2 -84 2 -6 35 -21 73 -34 l69 -24 24 -61 25 -61 -35 -69 -35
-69 59 -58 58 -58 60 29 c73 36 87 36 150 6 48 -22 51 -26 75 -94 l24 -72 82
0 82 0 24 71 24 72 61 25 61 25 71 -33 72 -34 57 57 56 56 -33 69 -33 68 24
59 c24 59 25 60 91 86 37 14 69 27 71 30 3 3 8 37 10 76 5 83 5 83 -84 115
-63 23 -63 23 -86 83 l-22 60 34 69 35 70 -57 57 -56 57 -69 -31 -69 -31 -56
19 c-63 21 -74 35 -100 118 l-18 57 -82 0 c-77 0 -83 -2 -90 -22z m151 -323
c60 -10 108 -39 159 -96 170 -189 32 -494 -224 -494 -204 0 -350 204 -284 398
19 57 92 141 147 169 41 20 119 38 147 33 8 -2 33 -6 55 -10z"/>
</g>
</svg>
