<?xml version="1.0" standalone="no"?>
<!DOCTYPE svg PUBLIC "-//W3C//DTD SVG 20010904//EN"
 "http://www.w3.org/TR/2001/REC-SVG-20010904/DTD/svg10.dtd">
<svg version="1.0" xmlns="http://www.w3.org/2000/svg"
 width="272.000000pt" height="285.000000pt" viewBox="0 0 272.000000 285.000000"
 preserveAspectRatio="xMidYMid meet">

<g transform="translate(0.000000,285.000000) scale(0.100000,-0.100000)"
fill="#000000" stroke="none">
<path d="M133 2460 c-44 -18 -54 -78 -17 -114 13 -13 43 -16 170 -16 151 0
155 -1 164 -22 5 -13 55 -214 110 -448 56 -234 119 -499 141 -590 22 -91 58
-239 79 -330 77 -320 75 -316 140 -322 25 -2 34 -7 31 -18 -2 -8 -6 -40 -9
-71 -11 -138 100 -253 243 -252 73 1 126 25 177 81 49 54 62 99 55 189 l-5 73
179 0 c98 0 179 -3 179 -6 0 -3 -5 -25 -11 -49 -31 -122 56 -256 185 -285 105
-23 208 25 261 122 24 43 29 64 28 113 -1 33 -3 69 -5 80 -2 15 3 21 22 23 62
9 83 83 34 121 -26 21 -34 21 -670 21 l-643 0 -11 43 c-6 23 -15 58 -21 77 -5
19 -9 38 -9 43 0 4 303 7 673 7 530 0 677 3 691 13 19 14 27 50 131 629 69
386 70 394 25 418 -12 7 -318 10 -898 10 l-880 0 -41 173 c-64 262 -67 272
-96 285 -31 14 -368 16 -402 2z m846 -667 c7 -38 14 -76 17 -86 5 -16 -4 -17
-121 -15 l-127 3 -19 70 c-10 39 -18 76 -18 83 -1 9 31 12 128 12 l129 0 11
-67z m466 -18 l0 -80 -151 -3 -151 -3 -12 63 c-7 35 -15 73 -18 86 l-5 22 168
-2 169 -3 0 -80z m475 75 c0 -8 -12 -73 -26 -137 -4 -23 -7 -23 -154 -23
l-150 0 0 85 0 85 165 0 c98 0 165 -4 165 -10z m409 -2 c0 -7 -6 -44 -12 -83
l-12 -70 -133 -3 c-105 -2 -132 0 -132 11 0 16 19 127 25 145 6 17 265 17 264
0z m-1292 -363 c6 -33 14 -75 18 -92 l6 -33 -115 0 -115 0 -10 38 c-16 59 -30
126 -31 140 0 10 27 12 118 10 l117 -3 12 -60z m411 -32 l3 -93 -124 0 -124 0
-17 89 c-9 49 -16 92 -16 95 0 4 62 5 138 4 l137 -3 3 -92z m412 85 c0 -7 -7
-48 -15 -91 -8 -43 -15 -81 -15 -83 0 -2 -54 -4 -120 -4 l-120 0 0 95 0 95
135 0 c101 0 135 -3 135 -12z m409 -10 c0 -13 -6 -54 -12 -93 l-12 -70 -139
-3 c-118 -2 -138 0 -133 12 3 8 11 43 17 78 19 107 4 98 151 98 127 0 129 0
128 -22z m-472 -322 c1 -1 -3 -32 -10 -69 l-11 -67 -93 0 -93 0 0 68 c0 38 3
71 6 74 5 5 194 -1 201 -6z m-704 -18 c3 -13 9 -44 12 -70 l7 -48 -105 0 -105
0 -16 65 c-9 35 -16 67 -16 70 0 3 49 5 109 5 105 0 109 -1 114 -22z m357 -48
l0 -70 -94 0 c-104 0 -97 -4 -111 70 -4 19 -9 43 -11 53 -5 15 5 17 105 17
l111 0 0 -70z m755 23 c-14 -102 0 -93 -152 -93 -135 0 -135 0 -130 23 3 12 9
43 12 70 l7 47 135 0 135 0 -7 -47z m-992 -552 c70 -27 91 -114 40 -163 -38
-35 -65 -41 -107 -24 -87 36 -84 150 4 185 32 13 34 13 63 2z m822 -5 c39 -17
57 -45 57 -92 0 -74 -68 -119 -137 -90 -77 33 -81 140 -5 178 42 22 42 22 85
4z"/>
</g>
</svg>
