<?xml version="1.0" standalone="no"?>
<!DOCTYPE svg PUBLIC "-//W3C//DTD SVG 20010904//EN"
 "http://www.w3.org/TR/2001/REC-SVG-20010904/DTD/svg10.dtd">
<svg version="1.0" xmlns="http://www.w3.org/2000/svg"
 width="512.000000pt" height="512.000000pt" viewBox="0 0 512.000000 512.000000"
 preserveAspectRatio="xMidYMid meet">

<g transform="translate(0.000000,512.000000) scale(0.100000,-0.100000)"
fill="#000000" stroke="none">
<path d="M2405 5029 c-145 -21 -332 -99 -456 -190 -81 -60 -201 -184 -252
-262 -48 -72 -110 -204 -132 -279 l-16 -57 -582 -3 -582 -3 -67 -32 c-93 -44
-151 -100 -196 -191 l-37 -76 0 -1296 0 -1296 37 -76 c45 -91 103 -147 196
-191 l67 -32 766 -3 766 -3 -10 -47 c-17 -81 -54 -150 -113 -212 l-57 -60
-205 0 c-131 0 -219 -4 -246 -12 -55 -16 -138 -99 -154 -154 -16 -53 -16 -255
0 -308 16 -55 99 -138 154 -154 60 -17 2488 -17 2548 0 55 16 138 99 154 154
15 53 16 255 0 306 -6 22 -31 62 -55 88 -66 73 -96 80 -343 80 l-207 0 -57 60
c-59 62 -96 131 -113 212 l-10 47 766 3 766 3 67 32 c93 44 151 100 196 191
l37 76 0 1296 0 1296 -37 76 c-45 91 -103 147 -196 191 l-67 32 -582 3 -582 3
-16 57 c-9 31 -34 94 -55 138 -194 418 -638 658 -1095 593z m198 -163 c59 -24
137 -139 182 -266 l14 -40 -239 0 -239 0 14 40 c44 125 122 241 179 266 40 17
50 17 89 0z m-376 -103 c-14 -26 -37 -83 -52 -125 l-28 -78 -129 0 -129 0 24
32 c41 52 166 146 251 189 43 21 81 37 83 35 2 -2 -7 -26 -20 -53z m754 6 c67
-36 191 -133 226 -177 l24 -32 -129 0 -129 0 -28 78 c-15 42 -38 98 -51 124
-13 26 -24 50 -24 52 0 8 48 -12 111 -45z m-874 -398 c-4 -16 -12 -88 -18
-160 l-13 -131 -194 0 -195 0 7 53 c9 66 32 147 62 215 l23 52 167 0 167 0 -6
-29z m736 7 c7 -27 24 -172 30 -245 l4 -53 -317 0 -317 0 4 53 c6 73 23 218
30 245 l5 22 278 0 278 0 5 -22z m523 -34 c26 -59 64 -202 64 -241 l0 -23
-193 0 -193 0 -13 131 c-6 72 -14 144 -18 160 l-5 29 166 0 167 0 25 -56z
m-1846 -344 l0 -79 -509 -3 c-497 -3 -510 -4 -537 -24 -15 -11 -37 -33 -48
-48 -21 -27 -21 -33 -21 -1046 0 -1013 0 -1019 21 -1046 11 -15 33 -37 48 -48
27 -21 29 -21 1670 -24 l1642 -2 37 -228 c20 -125 37 -233 37 -240 0 -10 -342
-12 -1723 -10 -1658 3 -1723 4 -1757 22 -49 26 -88 64 -113 111 l-22 40 0
1265 c0 1215 1 1266 19 1300 35 66 87 110 156 131 14 4 267 8 563 8 l537 1 0
-80z m3225 53 c47 -25 85 -64 111 -113 18 -33 19 -78 22 -877 2 -779 1 -843
-14 -843 -9 0 -45 5 -80 12 l-64 11 -2 788 c-3 778 -3 788 -24 815 -11 15 -33
37 -48 48 -27 20 -40 21 -537 24 l-509 3 0 80 0 80 553 -3 c544 -3 553 -3 592
-25z m-2657 -260 c11 -114 38 -274 57 -332 6 -21 4 -21 -129 -21 l-134 0 -47
69 c-25 38 -59 99 -75 134 -32 72 -70 205 -70 249 l0 28 193 0 193 0 12 -127z
m788 105 c-3 -13 -7 -61 -11 -108 -5 -82 -29 -215 -54 -307 l-12 -43 -239 0
-239 0 -12 43 c-25 92 -49 225 -54 307 -4 47 -8 95 -11 108 l-4 22 320 0 320
0 -4 -22z m554 -4 c0 -42 -39 -183 -70 -251 -16 -35 -50 -96 -75 -134 l-47
-69 -134 0 c-133 0 -135 0 -129 21 19 58 46 218 57 332 l12 127 193 0 193 0 0
-26z m-1861 -206 c13 -40 43 -112 67 -160 l44 -88 -307 0 c-343 0 -354 -2
-422 -71 -73 -72 -71 -52 -71 -649 0 -595 -2 -577 70 -648 72 -73 -55 -67
1437 -70 l1342 -2 6 -33 c3 -17 9 -53 14 -79 l8 -48 -1598 0 -1599 0 0 960 0
960 493 0 493 0 23 -72z m2991 -674 l0 -746 -22 5 c-13 3 -85 15 -160 28
l-137 22 -3 476 c-3 527 0 502 -70 571 -67 68 -79 70 -421 70 l-307 0 44 88
c24 48 54 120 67 160 l23 72 493 0 493 0 0 -746z m-505 241 l25 -24 0 -442 0
-441 -32 6 c-18 3 -63 10 -99 16 l-66 12 18 36 c17 33 19 65 19 369 l0 333
-80 0 -80 0 -1 -322 c0 -196 -4 -315 -9 -303 -5 11 -19 81 -30 155 -12 74 -26
153 -32 175 -30 121 -163 171 -267 102 -53 -35 -66 -71 -96 -253 -14 -87 -30
-168 -35 -179 -5 -12 -9 108 -9 303 l-1 322 -80 0 -80 0 0 -337 c0 -331 1
-339 23 -378 63 -113 240 -107 293 8 8 18 27 110 42 205 40 242 44 242 84 0
33 -199 39 -219 83 -256 27 -23 34 -37 43 -99 7 -39 12 -79 12 -87 0 -14 -130
-16 -1305 -16 l-1306 0 -24 25 -25 24 0 511 0 511 25 24 24 25 1471 0 1471 0
24 -25z m160 -1096 c176 -28 322 -53 324 -56 3 -2 -35 -44 -84 -93 l-90 -90
120 -120 120 -120 -103 -102 -102 -103 -120 120 -120 120 -90 -90 c-49 -49
-91 -87 -93 -84 -2 2 -27 148 -56 324 -29 176 -55 328 -58 338 -4 15 -1 18 14
14 10 -3 162 -29 338 -58z m663 -464 c-3 -306 -4 -322 -25 -360 -25 -47 -64
-85 -113 -111 -32 -18 -67 -19 -450 -22 l-415 -3 142 143 143 143 120 -120
120 -120 217 218 218 217 -120 120 -120 120 140 140 140 140 3 -92 c2 -51 2
-237 0 -413z m-1833 -697 c13 -76 43 -162 79 -220 l35 -58 -599 0 -599 0 35
58 c36 58 66 144 79 220 l7 42 478 0 478 0 7 -42z m766 -467 c28 -29 29 -32
29 -131 0 -99 -1 -102 -29 -131 l-29 -29 -1222 0 -1222 0 -29 29 c-28 29 -29
32 -29 131 0 99 1 102 29 131 l29 29 1222 0 1222 0 29 -29z"/>
<path d="M560 1440 l0 -80 80 0 80 0 0 80 0 80 -80 0 -80 0 0 -80z"/>
<path d="M880 1440 l0 -80 80 0 80 0 0 80 0 80 -80 0 -80 0 0 -80z"/>
<path d="M1200 1440 l0 -80 80 0 80 0 0 80 0 80 -80 0 -80 0 0 -80z"/>
<path d="M1200 2783 c0 -331 1 -339 23 -378 63 -113 240 -107 293 8 8 18 27
110 42 205 40 242 44 242 84 0 15 -95 34 -187 42 -205 54 -118 234 -121 294
-3 21 43 22 52 22 377 l0 333 -80 0 -80 0 -1 -322 c0 -196 -4 -315 -9 -303 -5
11 -19 81 -30 155 -12 74 -26 153 -32 175 -30 121 -163 171 -267 102 -53 -35
-66 -71 -96 -253 -14 -87 -30 -168 -35 -179 -5 -12 -9 108 -9 303 l-1 322 -80
0 -80 0 0 -337z"/>
<path d="M2160 2783 c0 -331 1 -339 23 -378 63 -113 240 -107 293 8 8 18 27
110 42 205 40 242 44 242 84 0 15 -95 34 -187 42 -205 54 -118 234 -121 294
-3 21 43 22 52 22 377 l0 333 -80 0 -80 0 -1 -322 c0 -196 -4 -315 -9 -303 -5
11 -19 81 -30 155 -12 74 -26 153 -32 175 -30 121 -163 171 -267 102 -53 -35
-66 -71 -96 -253 -14 -87 -30 -168 -35 -179 -5 -12 -9 108 -9 303 l-1 322 -80
0 -80 0 0 -337z"/>
</g>
</svg>
