<?xml version="1.0" standalone="no"?>
<!DOCTYPE svg PUBLIC "-//W3C//DTD SVG 20010904//EN"
 "http://www.w3.org/TR/2001/REC-SVG-20010904/DTD/svg10.dtd">
<svg version="1.0" xmlns="http://www.w3.org/2000/svg"
 width="511.000000pt" height="509.000000pt" viewBox="0 0 511.000000 509.000000"
 preserveAspectRatio="xMidYMid meet">

<g transform="translate(0.000000,509.000000) scale(0.100000,-0.100000)"
fill="#000000" stroke="none">
<path d="M2245 5079 c-426 -58 -787 -192 -1116 -415 -164 -110 -242 -175 -394
-328 -363 -366 -597 -805 -696 -1311 -53 -272 -53 -698 0 -970 77 -394 232
-737 485 -1075 91 -122 344 -375 466 -466 309 -232 635 -386 975 -463 50 -11
113 -25 140 -32 72 -17 725 -24 829 -9 480 69 972 303 1336 638 443 407 718
920 811 1514 25 159 30 515 10 668 -65 492 -221 877 -515 1270 -91 122 -344
375 -466 466 -385 289 -771 448 -1234 509 -119 16 -525 19 -631 4z m1555
-2314 l0 -695 -960 0 -960 0 0 331 0 331 -29 29 c-29 29 -30 29 -150 29 l-121
0 0 335 0 335 1110 0 1110 0 0 -695z m-1970 -620 l0 -455 -300 0 -300 0 0 455
0 455 300 0 300 0 0 -455z m1105 -217 c6 -27 75 -370 75 -375 0 -2 38 -3 85
-3 84 0 85 0 85 -25 l0 -25 -495 0 -495 0 0 25 c0 25 1 25 88 25 l89 0 39 195
39 194 135 4 c380 8 349 9 355 -15z"/>
</g>
</svg>
